<svg xmlns="http://www.w3.org/2000/svg" xmlns:xlink="http://www.w3.org/1999/xlink" viewBox="0 0 199.91 199.91"><defs><style>.cls-1{fill:none;}.cls-2{clip-path:url(#clip-path);}.cls-3{fill:url(#linear-gradient);}</style><clipPath id="clip-path"><path class="cls-1" d="M109.72,82.34l-7.2,2.21a81.71,81.71,0,0,0-8.61,3.06C85.76,75.26,73.6,68.27,67,71.23c-4.87,2.2-6.85,9.38-6,18.74l.25-.15c-.2-7.62,1.18-14,4.84-15.62,5.69-2.57,16.75,3.8,24.2,15-23.76,11.46-34.82,32-40,46.72,9.35-15.15,24.38-27.9,46.09-35.59.65,1.41,1.24,2.81,1.77,4.16l-.69.28C71.51,115.2,57.8,131.86,50,149.93c9.27-13,25-26.84,44.15-32.12,2.7-.74,5.16-1.52,7.4-2.3,2.8,10.78,2,20.54-3.27,22.93-4.85,2.22-13.79-1.47-21.19-11.07,0,0-.15,0-.29.12s-.27.15-.29.12c7.78,11.14,17.66,15.26,23.74,12.51s7.68-13.18,4.89-26c12.47-4.95,16.74-9.9,16.74-9.9,15-13.3,20-29.44,22.68-38.75-5.78,11.5-11.86,21-28.83,31.2-.79.81-5.83,3-14,6.36l-1.52-3.9L100.1,99a160.57,160.57,0,0,0,15.47-6.44C136.92,81.65,147,57.89,149.93,50c-7.46,12.56-19.05,25.4-40.21,32.36"/></clipPath><linearGradient id="linear-gradient" x1="-75.94" y1="773.65" x2="-74.94" y2="773.65" gradientTransform="matrix(142, 0, 0, -142, 10812.67, 109954.11)" gradientUnits="userSpaceOnUse"><stop offset="0" stop-color="#57cbf5"/><stop offset="0.55" stop-color="#005ead"/><stop offset="1" stop-color="#005ead"/></linearGradient></defs><title>logo-lightbg</title><g id="Layer_2" data-name="Layer 2"><g id="Layer_1-2" data-name="Layer 1"><g class="cls-2"><rect class="cls-3" x="29.28" y="29.28" width="141.36" height="141.36" transform="translate(-41.4 99.95) rotate(-45)"/></g></g></g></svg>